**ABCDEFGHIJKLMNOPQRSTUVWXYZabcdefghijklmnopqrstuvwxyz**************************
**PARASOLID !"#$%&'()*+,-./:;<=>?@[\]^_`{|}~0123456789**************************
**PART1;
MC=AMD64;
MC_MODEL=Intel64 Family 6 Model 60 Stepping 3, GenuineIntel;
MC_ID=unknown;
OS=Windows_NT;
OS_RELEASE=unknown;
FRU=Parasolid Version 31.1, build 290,  3- 9-2020;
APPL=SOLIDWORKS 2020-2020128;
SITE=;
USER=unknown;
FORMAT=text;
GUISE=transmit;
KEY=BeamEnginePistonTube;
FILE=BeamEnginePistonTube.x_t;
DATE=Fri Jul  8 17:09:40 2022;
**PART2;
SCH=SCH_3101290_31100;
USFLD_SIZE=0;
**PART3;
**END_OF_HEADER*****************************************************************
T51 : TRANSMIT FILE created by modeller version 310129023 SCH_3101290_31100_1300
6222 0 12 34 CCCCCCI4 mesh1006 0 I8 polyline1008 0 CCCCCCCDI5 owner1040 0 CCCCCC
I13 boundary_mesh1006 0 I17 boundary_polyline1008 0 CCCA16 index_map_offset0 0 1
 dA9 index_map82 0 A17 node_id_index_map82 0 A20 schema_embedding_map82 0 A5 chi
ld12 0 A14 lowest_node_id0 0 1 dA16 mesh_offset_data206 0 Z1 117 2 3 0 0 0 0 0 0
 1e3 1e-8 0 4 0 1 0 1 1 5 6 7 0 0 0 8 9 0 0 0 0 0 0 0 0 81 255 2 2 113 10 1 11 0
 0 0 0 12 70 11 CI9 list_type0 0 1 uI10 notransmit0 0 1 lCCCDCCDI12 finger_index
0 0 1 dI12 finger_block1012 0 CZ3 0 4 T1 0 0 8 20 1 13 13 13 255 5 31 0 1 0 14 0
 0 15 0 51 255 6 30 0 16 17 0 0 -0 6 0 0 -1 0 1.875 0 0 -1 31 255 7 25 0 18 19 0
 0 +0 0 0 0 1 0 0 0 1 1.875 19 8 CCCCCCCA5 owner12 0 Z8 9 0 1 15 0 20 V0 16 255
 9 5 0 ?21 0 18 19 0 0 1 17 255 21 0 22 21 21 0 23 9 0 0 +16 18 20 0 ?24 9 25 7
 0 0 1 31 19 7 0 9 26 7 0 +0 6 0 0 1 0 0 0 1 1.875 31 26 73 0 27 28 19 0 +0 0 0
 0 1 0 0 0 1 1.5 16 27 51 0 ?29 25 0 26 0 0 1 31 28 74 0 25 0 26 0 +0 6 0 0 1 0
 0 0 1 1.5 16 25 54 0 ?30 18 27 28 0 0 1 17 30 0 31 30 30 0 32 25 0 0 +15 255 31
 60 0 30 33 34 17 32 0 35 32 32 0 30 25 0 0 -15 35 45 0 32 14 0 14 255 14 48 36
 ?37 0 22 5 38 +0 0 37 0 20 81 1 36 114 39 14 40 0 0 41 42 14 37 42 41 ?16 14 43
 5 17 -0 0 16 14 20 15 22 4 0 21 14 35 50 255 38 3 0 14 44 17 0 +0 6 0 0 1 0 0 0
 1 13 20 10 0 0 0 0 0 0 8 14 51 44 70 0 33 0 38 0 -0 6 0 0 -1 0 1.5 0 0 -1 50 17
 24 0 37 38 6 0 +0 0 0 0 1 0 0 0 1 14 33 57 45 ?0 16 31 5 44 +0 0 0 16 20 81 1 4
5 116 39 33 46 0 41 47 48 14 16 27 47 ?33 37 49 5 6 -0 0 33 37 20 81 1 47 117 39
 16 50 0 45 0 51 15 49 26 0 23 16 52 17 23 0 49 23 23 0 21 9 0 0 -15 52 28 0 24
 16 0 17 24 0 52 24 24 0 53 18 0 0 +17 53 0 43 53 53 0 24 18 0 0 -15 43 19 0 53
 37 54 15 54 40 0 29 37 0 17 29 0 54 29 29 0 55 27 0 0 +17 55 0 34 55 55 0 29 27
 0 0 -15 34 61 0 55 33 0 80 255 1 39 56 57 9000 1 1 1 1 1 1 1 1 0 FFFFTFTFFFFFFF
1 81 1 50 102 58 16 0 47 59 46 60 82 255 1 51 -233701254 80 1 58 0 61 8001 0 0 0
 0 3 5 0 0 0 FFFFTFTFFFFFFF2 81 1 59 101 58 37 0 41 40 50 62 81 1 46 103 58 33 0
 45 50 0 63 83 255 3 60 .792156862745098 .819607843137255 .933333333333333 83 3
 63 .792156862745098 .819607843137255 .933333333333333 81 1 41 115 39 37 59 0 36
 45 64 81 1 40 100 58 14 0 36 0 59 65 83 3 62 .792156862745098 .819607843137255
 .933333333333333 83 3 65 .792156862745098 .819607843137255 .933333333333333 82
 1 64 -231997318 79 255 15 61 SDL/TYSA_COLOUR79 14 57 SWEntUnchanged82 1 48 -237
830022 82 1 42 -231473030 19 15 32 0 1 0 8 5 S0 74 4 CI16 index_map_offset0 0 1
 dCCZ20 13 8 0 0 66 67 47 68 69 11 46 2 0 0 0 0 0 0 0 0 0 0 0 0 81 2 66 37 70 1
 0 67 0 0 0 71 81 2 67 88 72 1 66 68 0 0 0 73 81 1 68 93 74 1 67 69 0 0 75 81 2
 69 94 76 1 68 11 0 0 0 0 81 2 11 99 77 1 69 2 0 0 0 78 80 2 77 79 80 9000 0 0 0
 0 3 5 0 0 0 FFTFFFFFFFFFFF9 1 82 1 78 1 79 24 80 BODY_IN_LIGHTWEIGHT_PERM80 2 7
6 81 82 9000 0 0 0 0 3 5 0 0 0 FFTFFFFFFFFFFF9 1 79 16 82 BODY_RECIPE_200180 1 7
4 83 84 9000 1 1 1 1 1 1 1 1 0 FFTFFFFFFFFFFF1 82 1 75 258546 79 10 84 BODY_MATC
H80 2 72 85 86 9000 0 0 0 0 3 5 0 0 0 FFTFFFFFFFFFFF9 1 82 1 73 42 79 30 86 LAST
_BODY_MODIFYING_FEATURE_ID80 2 70 87 88 9000 0 0 0 0 3 5 0 0 0 FFTFFFFFFFFFFF9 1
 82 1 71 103 79 19 88 ENT_TIME_STAMP_200180 2 10 89 90 9000 0 0 0 0 3 5 0 0 0 FF
TFFFFFFFFFFF9 1 82 1 12 101 79 12 90 ATOM_ID_20011 0 
