**ABCDEFGHIJKLMNOPQRSTUVWXYZabcdefghijklmnopqrstuvwxyz**************************
**PARASOLID !"#$%&'()*+,-./:;<=>?@[\]^_`{|}~0123456789**************************
**PART1;
MC=AMD64;
MC_MODEL=Intel64 Family 6 Model 60 Stepping 3, GenuineIntel;
MC_ID=unknown;
OS=Windows_NT;
OS_RELEASE=unknown;
FRU=Parasolid Version 31.1, build 290,  3- 9-2020;
APPL=SOLIDWORKS 2020-2020128;
SITE=;
USER=unknown;
FORMAT=text;
GUISE=transmit;
KEY=BeamEngineLink3;
FILE=BeamEngineLink3.x_t;
DATE=Fri Jul  8 16:32:55 2022;
**PART2;
SCH=SCH_3101290_31100;
USFLD_SIZE=0;
**PART3;
**END_OF_HEADER*****************************************************************
T51 : TRANSMIT FILE created by modeller version 310129023 SCH_3101290_31100_1300
6222 0 12 34 CCCCCCI4 mesh1006 0 I8 polyline1008 0 CCCCCCCDI5 owner1040 0 CCCCCC
I13 boundary_mesh1006 0 I17 boundary_polyline1008 0 CCCA16 index_map_offset0 0 1
 dA9 index_map82 0 A17 node_id_index_map82 0 A20 schema_embedding_map82 0 A5 chi
ld12 0 A14 lowest_node_id0 0 1 dA16 mesh_offset_data206 0 Z1 484 2 3 0 0 0 0 0 0
 1e3 1e-8 0 4 0 1 0 1 1 5 6 7 8 0 0 9 10 11 0 0 0 0 0 0 0 81 255 2 2 471 12 1 13
 0 0 0 0 14 70 11 CI9 list_type0 0 1 uI10 notransmit0 0 1 lCCCDCCDI12 finger_ind
ex0 0 1 dI12 finger_block1012 0 CZ3 0 4 T1 0 0 8 20 1 15 15 13 255 5 183 0 1 0 1
6 0 0 17 0 51 255 6 174 0 16 18 0 0 --6 0 .5 0 0 -1 1 -1 0 0 30 255 7 182 0 10 1
9 0 0 +-6.13333333333333 -.991071249821227 .5 0 0 -1 29 255 8 135 0 20 21 0 -6.1
3333333333333 .991071249821236 0 19 8 CCCCCCCA5 owner12 0 Z9 61 0 1 17 0 22 V0 1
6 255 10 150 0 ?23 0 24 7 0 0 1 18 255 11 58 0 25 0 26 27 ?1 17 255 25 0 28 29 3
0 11 31 32 0 33 +18 26 55 0 30 11 34 35 ?1 29 27 60 0 11 35 36 -6.13333333333333
 .991071249821236 .5 29 35 57 0 26 37 27 -.24 1.78392824967822 .5 29 36 142 0 38
 27 39 -6.13333333333333 -.991071249821227 0 18 38 125 0 40 41 0 36 ?1 29 39 141
 0 41 36 42 -.24 -1.78392824967822 0 18 41 124 0 43 44 38 39 ?1 29 42 140 0 44 3
9 45 .24 -1.78392824967822 0 18 44 123 0 46 47 41 42 ?1 29 45 139 0 47 42 48 6.1
3333333333333 -.991071249821233 0 18 47 122 0 49 50 44 45 ?1 29 48 138 0 50 45 5
1 6.13333333333333 .991071249821236 0 18 50 121 0 52 53 47 48 ?1 29 51 137 0 53
 48 21 .24 1.78392824967822 0 18 53 120 0 54 55 50 51 ?1 29 21 136 0 55 51 8 -.2
4 1.78392824967822 0 18 55 119 0 56 20 53 21 ?1 17 56 0 57 58 59 55 60 61 0 62 +
18 20 118 0 63 64 55 8 ?1 17 63 0 65 33 62 20 66 67 0 68 +18 64 37 0 69 70 20 71
 ?1 17 69 0 72 23 73 64 74 75 0 29 -18 70 40 0 74 76 64 77 ?1 29 71 39 0 64 0 77
 -6.13333333333333 -.991071249821227 .5 29 77 42 0 70 71 78 -.24 -1.783928249678
22 .5 29 78 45 0 76 77 79 .24 -1.78392824967822 .5 18 76 43 0 80 81 70 78 ?1 29
 79 48 0 81 78 82 6.13333333333333 -.991071249821233 .5 18 81 46 0 83 84 76 79 ?
1 29 82 51 0 84 79 37 6.13333333333333 .991071249821236 .5 18 84 49 0 85 34 81 8
2 ?1 29 37 54 0 34 82 35 .24 1.78392824967822 .5 18 34 52 0 86 26 84 37 ?1 17 86
 0 28 30 85 34 87 88 0 89 +15 255 28 4 0 29 90 0 17 30 0 28 25 86 26 91 92 0 58
 +17 85 0 28 86 83 84 93 94 0 95 +17 87 0 96 97 89 84 86 88 0 0 -16 88 25 0 ?86
 92 94 98 0 0 1 17 89 0 96 87 54 34 59 99 0 91 -15 96 155 0 54 100 0 17 54 0 96
 89 97 53 101 102 0 59 +17 59 0 57 56 91 53 89 99 0 60 +16 99 145 0 ?59 103 104
 105 0 0 1 17 91 0 57 59 58 34 30 92 0 0 -15 57 153 0 56 106 0 17 58 0 57 91 56
 26 62 104 0 31 -16 92 29 0 ?30 32 88 107 0 0 1 16 32 33 0 ?25 108 92 109 0 0 1
 31 255 107 31 0 92 98 109 0 +0 0 .5 0 0 1 1 0 0 1.8 30 98 27 0 88 110 107 0 +.2
4 1.78392824967822 .5 -.991071249821234 .133333333333333 0 30 109 35 0 32 107 11
1 0 +-6.13333333333333 .991071249821236 .5 -.991071249821234 -.133333333333333 0
 31 111 134 0 112 109 113 0 +-6 0 0 0 0 1 1 0 0 1 16 112 114 0 ?114 115 116 111
 0 0 1 30 113 133 0 115 111 117 0 +-6.13333333333333 -.991071249821227 0 .991071
249821234 -.1333333333333344 0 16 115 110 0 ?43 118 112 113 0 0 1 31 117 132 0 1
18 113 119 0 +0 0 0 0 0 1 1 0 0 1.8 16 118 106 0 ?46 120 115 117 0 0 1 30 119 13
1 0 120 117 121 0 +.24 -1.78392824967822 0 .991071249821234 .1333333333333336 0
 16 120 102 0 ?49 122 118 119 0 0 1 31 121 130 0 122 119 123 0 +6 0 0 0 0 1 1 0
 0 1 16 122 98 0 ?52 102 120 121 0 0 1 30 123 129 0 102 121 124 0 +.24 1.7839282
4967822 0 -.991071249821234 .133333333333333 0 16 102 94 0 ?54 61 122 123 0 0 1
 31 124 128 0 61 123 125 0 +0 0 0 0 0 1 1 0 0 1.8 16 61 90 0 ?56 67 102 124 0 0
 1 30 125 127 0 67 124 126 0 +-6.13333333333333 .991071249821236 0 -.99107124982
1234 -.133333333333333 0 16 67 86 0 ?63 127 61 125 0 0 1 30 126 175 0 108 125 12
8 0 +-6.13333333333333 .991071249821236 .5 0 0 -1 16 108 143 0 ?68 104 32 126 0
 0 1 30 128 176 0 104 126 105 0 +-.24 1.78392824967822 .5 0 0 -1 16 104 144 0 ?6
2 99 108 128 0 0 1 30 105 177 0 99 128 129 0 +.24 1.78392824967822 .5 0 0 -1 30
 129 178 0 103 105 130 0 +6.13333333333333 .991071249821236 .5 0 0 -1 16 103 146
 0 ?97 131 99 129 0 0 1 30 130 179 0 131 129 132 0 +6.13333333333333 -.991071249
821233 .5 0 0 -1 16 131 147 0 ?133 134 103 130 0 0 1 30 132 180 0 134 130 19 0 +
.24 -1.78392824967822 .5 0 0 -1 16 134 148 0 ?135 24 131 132 0 0 1 30 19 181 0 2
4 132 7 0 +-.24 -1.78392824967822 .5 0 0 -1 16 24 149 0 ?136 10 134 19 0 0 1 17
 136 0 137 46 138 41 73 24 0 139 +15 137 161 0 46 140 0 17 46 0 137 141 136 44 1
39 118 0 135 +17 138 0 137 136 141 70 80 142 0 0 -17 73 0 72 69 43 70 136 24 0 1
38 -17 139 0 143 40 144 41 46 118 0 0 -15 143 85 0 145 146 0 17 40 0 143 145 139
 38 43 115 0 23 -17 144 0 143 139 147 44 49 120 0 0 -17 147 0 143 144 101 47 52
 122 0 0 -17 49 0 148 149 135 47 144 120 0 133 +15 148 159 0 49 150 0 17 149 0 1
48 151 49 81 133 131 0 93 -17 135 0 148 49 151 44 141 134 0 144 +17 133 0 152 52
 93 47 149 131 0 147 +15 152 157 0 52 153 0 17 52 0 152 95 133 50 147 122 0 97 +
17 93 0 152 133 95 81 85 94 0 0 -17 95 0 152 93 52 84 97 103 0 87 -16 94 21 0 ?8
5 88 154 110 0 0 1 16 154 17 0 ?83 94 142 155 0 0 1 31 110 23 0 94 155 98 0 +6 0
 .5 0 0 1 1 0 0 1 30 155 19 0 154 156 110 0 +.24 -1.78392824967822 .5 .991071249
821234 .1333333333333336 0 31 156 15 0 142 157 155 0 +0 0 .5 0 0 1 1 0 0 1.8 16
 142 13 0 ?80 154 75 156 0 0 1 30 157 11 0 75 158 156 0 +-6.13333333333333 -.991
071249821227 .5 .991071249821234 -.1333333333333344 0 16 75 9 0 ?74 142 127 157
 0 0 1 31 158 7 0 127 159 157 0 +-6 0 .5 0 0 1 1 0 0 1 16 127 5 0 ?29 75 67 158
 0 0 1 31 159 376 0 160 161 158 0 -0 0 0 0 0 1 1 0 0 .25 16 160 347 0 ?162 163 1
64 159 0 0 1 31 161 377 0 164 165 159 0 +0 0 .5 0 0 1 1 0 0 .25 16 164 344 0 ?16
6 160 0 161 0 0 1 31 165 378 0 167 168 161 0 -6 0 0 0 0 1 1 0 0 .25 16 167 329 0
 ?169 170 163 165 0 0 1 31 168 379 0 163 171 165 0 +6 0 .5 0 0 1 1 0 0 .25 16 16
3 326 0 ?172 167 160 168 0 0 1 31 171 380 0 116 173 168 0 --6 0 0 0 0 1 1 0 0 .2
5 16 116 311 0 ?174 112 170 171 0 0 1 31 173 381 0 170 0 171 0 +-6 0 .5 0 0 1 1
 0 0 .25 16 170 308 0 ?175 116 167 173 0 0 1 17 175 0 176 175 175 0 177 170 0 0
 +15 176 316 0 175 178 0 17 177 0 179 177 177 0 175 170 0 0 -15 179 300 0 177 90
 180 14 255 90 1 181 ?146 182 179 5 183 +0 0 146 182 22 15 180 291 0 184 90 185
 17 184 0 180 184 184 0 172 163 0 0 -15 185 282 0 186 90 28 17 186 0 185 186 186
 0 166 164 0 0 -17 166 0 187 166 166 0 186 164 0 0 +15 187 352 0 166 188 0 14 18
8 348 189 ?190 146 191 5 192 -0 0 190 146 22 81 1 189 473 193 188 194 0 181 195
 196 14 190 330 195 ?178 188 197 5 198 -0 0 178 188 22 14 146 84 199 ?188 90 200
 5 201 -0 0 188 90 22 15 191 351 0 162 188 187 51 192 367 0 188 198 183 0 +0 0 -
.707106781186548 0 0 1 .25 1 0 0 13 22 62 0 0 0 0 0 0 9 16 14 16 166 202 ?203 0
 204 5 6 -0 0 203 0 22 81 1 202 476 193 16 205 0 199 206 207 14 203 164 206 ?140
 16 72 5 18 -0 0 140 16 22 15 204 165 0 114 16 0 17 114 0 204 208 68 38 145 112
 0 0 +17 208 0 204 209 114 64 23 10 0 0 -17 68 0 204 114 209 20 33 108 0 145 +17
 145 0 143 66 40 20 114 112 0 0 -17 66 0 143 60 145 55 63 67 0 0 -17 60 0 143 10
1 66 53 56 61 0 0 -17 101 0 143 147 60 50 54 102 0 0 -17 209 0 204 68 208 11 29
 127 0 0 -17 33 0 65 31 63 11 68 108 0 209 -15 65 151 0 63 182 0 17 31 0 65 62 3
3 26 25 32 0 0 -17 62 0 65 63 31 55 58 104 0 66 +14 182 152 210 ?90 106 65 5 211
 -0 0 90 106 22 81 1 210 478 193 182 212 0 206 213 214 14 106 154 213 ?182 100 5
7 5 215 -0 0 182 100 22 50 255 211 167 0 182 201 215 0 +-6.13333333333333 .99107
1249821236 .5 .133333333333333 -.991071249821234 0 .991071249821234 .13333333333
3333 0 50 201 126 0 146 183 211 0 +-6 0 0 0 0 1 1 0 0 51 215 168 0 106 211 216 0
 -0 0 .5 0 0 -1 1.8 -1 0 0 50 216 169 0 100 215 217 0 +.24 1.78392824967822 .5 -
.133333333333333 -.991071249821234 0 .991071249821234 -.133333333333333 0 14 100
 156 218 ?106 153 96 5 216 -0 0 106 153 22 51 217 170 0 153 216 219 0 -6 0 .5 0
 0 -1 1 -1 0 0 14 153 158 220 ?100 150 152 5 217 -0 0 100 150 22 50 219 171 0 15
0 217 221 0 +.24 -1.78392824967822 .5 -.1333333333333336 .991071249821234 0 -.99
1071249821234 -.1333333333333336 0 14 150 160 222 ?153 140 148 5 219 -0 0 153 14
0 22 51 221 172 0 140 219 18 0 -0 0 .5 0 0 -1 1.8 -1 0 0 14 140 162 223 ?150 203
 137 5 221 -0 0 150 203 22 50 18 173 0 203 221 6 0 +-6.13333333333333 -.99107124
9821227 .5 .1333333333333344 .991071249821234 0 -.991071249821234 .1333333333333
344 0 81 1 223 483 193 140 224 0 222 225 226 80 255 1 193 227 228 9000 1 1 1 1 1
 1 1 1 0 FFFFTFTFFFFFFF1 81 1 224 427 229 140 0 223 230 231 232 81 1 222 482 193
 150 231 0 220 223 233 81 1 225 484 193 178 234 0 223 0 235 82 255 1 226 4897506
65 14 178 312 225 ?0 190 236 5 237 -0 0 0 190 22 81 1 234 437 229 178 0 225 238
 0 239 82 1 235 2003501198 80 1 229 0 240 8001 0 0 0 0 3 5 0 0 0 FFFFTFTFFFFFFF2
 81 1 238 436 229 190 0 195 194 234 241 83 255 3 239 .792156862745098 .819607843
137255 .933333333333333 81 1 195 474 193 190 238 0 189 199 242 81 1 194 435 229
 188 0 189 243 238 244 83 3 241 .792156862745098 .819607843137255 .9333333333333
33 81 1 243 434 229 146 0 199 245 194 246 83 3 244 .792156862745098 .81960784313
7255 .933333333333333 81 1 199 475 193 146 243 0 195 202 247 81 1 245 433 229 90
 0 181 212 243 248 83 3 246 .792156862745098 .819607843137255 .933333333333333 8
1 1 181 472 193 90 245 0 0 189 249 81 1 212 432 229 182 0 210 250 245 251 83 3 2
48 .792156862745098 .819607843137255 .933333333333333 81 1 250 431 229 106 0 213
 252 212 253 83 3 251 .792156862745098 .819607843137255 .933333333333333 81 1 21
3 479 193 106 250 0 210 218 254 81 1 252 430 229 100 0 218 255 250 256 83 3 253
 .792156862745098 .819607843137255 .933333333333333 81 1 218 480 193 100 252 0 2
13 220 257 81 1 255 429 229 153 0 220 231 252 258 83 3 256 .792156862745098 .819
607843137255 .933333333333333 81 1 220 481 193 153 255 0 218 222 259 81 1 231 42
8 229 150 0 222 224 255 260 83 3 258 .792156862745098 .819607843137255 .93333333
3333333 83 3 260 .792156862745098 .819607843137255 .933333333333333 82 1 259 489
226377 82 1 257 488964233 82 1 254 488702089 82 1 249 476381326 82 1 247 4867360
14 82 1 242 2007498894 79 255 15 240 SDL/TYSA_COLOUR15 236 315 0 174 178 176 51
 237 373 0 178 0 198 0 +-6 0 -.707106781186548 0 0 1 .25 1 0 0 51 198 370 0 190
 237 192 0 +6 0 -.707106781186548 0 0 1 .25 1 0 0 17 174 0 236 174 174 0 261 116
 0 0 +17 261 0 200 261 261 0 174 116 0 0 -15 200 272 0 261 146 262 15 262 263 0
 263 146 264 17 263 0 262 263 263 0 169 167 0 0 -15 264 254 0 265 146 143 17 265
 0 264 265 265 0 162 160 0 0 -17 162 0 191 162 162 0 265 160 0 0 +17 169 0 197 1
69 169 0 263 167 0 0 +15 197 333 0 169 190 266 15 266 334 0 172 190 0 17 172 0 2
66 172 172 0 184 163 0 0 +82 1 233 489488521 81 1 230 426 229 203 0 206 205 224
 267 83 3 232 .792156862745098 .819607843137255 .933333333333333 81 1 206 477 19
3 203 230 0 202 210 268 81 1 205 425 229 16 0 202 0 230 269 83 3 267 .7921568627
45098 .819607843137255 .933333333333333 83 3 269 .792156862745098 .8196078431372
55 .933333333333333 82 1 268 490012809 79 14 228 SWEntUnchanged50 183 3 0 90 192
 201 0 +-6 0 .5 0 0 1 1 0 0 82 1 214 488439945 17 29 0 28 74 25 64 209 127 0 208
 +17 74 0 28 80 29 70 69 75 0 73 +17 80 0 28 83 74 76 138 142 0 141 +17 83 0 28
 85 80 81 151 154 0 149 +17 141 0 137 138 46 76 135 134 0 151 -17 151 0 148 135
 149 76 83 154 0 0 -17 23 0 72 43 69 38 208 10 0 114 +15 72 163 0 43 203 0 17 43
 0 72 73 23 41 40 115 0 136 +82 1 207 490274953 82 1 196 2011431054 17 97 0 96 5
4 87 50 95 103 0 101 +19 17 184 0 1 0 9 5 S0 74 4 CI16 index_map_offset0 0 1 dCC
Z20 15 8 0 0 270 271 225 272 273 13 234 2 0 0 0 0 0 0 0 0 0 0 0 0 81 2 270 236 2
74 1 0 271 0 0 0 275 81 2 271 240 276 1 270 272 0 0 0 277 81 1 272 399 278 1 271
 273 0 0 279 81 2 273 417 280 1 272 13 0 0 0 281 81 2 13 423 282 1 273 2 0 0 0 0
 80 2 282 283 284 9000 0 0 0 0 3 5 0 0 0 FFTFFFFFFFFFFF9 1 79 16 284 BODY_RECIPE
_200180 2 280 285 286 9000 0 0 0 0 3 5 0 0 0 FFTFFFFFFFFFFF9 1 82 1 281 1 79 24
 286 BODY_IN_LIGHTWEIGHT_PERM80 1 278 287 288 9000 1 1 1 1 1 1 1 1 0 FFTFFFFFFFF
FFF1 82 1 279 1186915 79 10 288 BODY_MATCH80 2 276 289 290 9000 0 0 0 0 3 5 0 0
 0 FFTFFFFFFFFFFF9 1 82 1 277 121 79 30 290 LAST_BODY_MODIFYING_FEATURE_ID80 2 2
74 291 292 9000 0 0 0 0 3 5 0 0 0 FFTFFFFFFFFFFF9 1 82 1 275 121 79 19 292 ENT_T
IME_STAMP_200180 2 12 293 294 9000 0 0 0 0 3 5 0 0 0 FFTFFFFFFFFFFF9 1 82 1 14 1
07 79 12 294 ATOM_ID_20011 0 
