**ABCDEFGHIJKLMNOPQRSTUVWXYZabcdefghijklmnopqrstuvwxyz**************************
**PARASOLID !"#$%&'()*+,-./:;<=>?@[\]^_`{|}~0123456789**************************
**PART1;
MC=AMD64;
MC_MODEL=Intel64 Family 6 Model 60 Stepping 3, GenuineIntel;
MC_ID=unknown;
OS=Windows_NT;
OS_RELEASE=unknown;
FRU=Parasolid Version 31.1, build 290,  3- 9-2020;
APPL=SOLIDWORKS 2020-2020128;
SITE=;
USER=unknown;
FORMAT=text;
GUISE=transmit;
KEY=BeamEnginePiston;
FILE=BeamEnginePiston.x_t;
DATE=Fri Jul  8 16:56:24 2022;
**PART2;
SCH=SCH_3101290_31100;
USFLD_SIZE=0;
**PART3;
**END_OF_HEADER*****************************************************************
T51 : TRANSMIT FILE created by modeller version 310129023 SCH_3101290_31100_1300
6222 0 12 34 CCCCCCI4 mesh1006 0 I8 polyline1008 0 CCCCCCCDI5 owner1040 0 CCCCCC
I13 boundary_mesh1006 0 I17 boundary_polyline1008 0 CCCA16 index_map_offset0 0 1
 dA9 index_map82 0 A17 node_id_index_map82 0 A20 schema_embedding_map82 0 A5 chi
ld12 0 A14 lowest_node_id0 0 1 dA16 mesh_offset_data206 0 Z1 345 2 3 0 0 0 0 0 0
 1e3 1e-8 0 4 0 1 0 1 1 5 6 7 8 0 0 9 10 11 0 0 0 0 0 0 0 81 255 2 2 336 12 1 13
 0 0 0 0 14 70 11 CI9 list_type0 0 1 uI10 notransmit0 0 1 lCCCDCCDI12 finger_ind
ex0 0 1 dI12 finger_block1012 0 CZ3 0 4 T1 0 0 8 20 1 15 15 13 255 5 31 0 1 0 16
 0 0 17 0 51 255 6 30 0 18 19 0 0 -0 .4 0 0 -1 0 1.5 0 0 -1 31 255 7 25 0 20 21
 0 0 +0 0 0 0 1 0 0 0 1 1.5 29 255 8 59 0 11 22 0 .5 .4 -.75 19 8 CCCCCCCA5 owne
r12 0 Z9 9 0 1 17 0 23 V0 16 255 10 5 0 ?24 0 20 21 0 0 1 18 255 11 57 0 25 0 26
 8 ?1 17 255 25 0 27 28 29 11 30 31 0 32 +18 26 109 0 33 11 34 35 ?1 17 33 0 27
 29 28 26 36 37 0 38 -18 34 108 0 30 26 39 40 ?1 29 35 157 0 26 40 41 -.5 .9 -.7
5 29 40 158 0 34 42 35 .5 .9 -.75 29 41 156 0 43 35 44 -.5 .4 -.25 18 43 110 0 4
5 46 47 41 ?1 29 44 155 0 46 41 22 .5 .4 -.25 18 46 103 0 48 49 43 44 ?1 29 22 1
53 0 49 44 8 -.5 .4 -.75 18 49 106 0 28 39 46 22 ?1 17 28 0 27 33 25 49 50 51 0
 36 +18 39 107 0 52 34 49 42 ?1 17 52 0 53 54 48 39 55 56 0 57 -29 42 159 0 39 5
8 40 .5 .9 -.25 29 58 221 0 47 0 42 -.5 .9 -.25 18 47 193 0 59 43 0 58 ?1 17 59
 0 60 38 61 47 45 62 0 54 -15 255 60 114 0 61 63 0 17 38 0 60 36 59 26 64 65 0 6
6 -17 61 0 60 59 36 43 67 68 0 69 +17 45 0 53 48 54 43 59 62 0 61 +16 62 82 0 ?4
5 20 56 70 0 0 1 17 54 0 53 45 52 47 71 72 0 64 +15 53 118 0 48 73 0 17 71 0 74
 75 64 39 54 72 0 0 -16 72 180 0 ?54 76 77 78 0 0 1 17 64 0 74 71 66 47 38 65 0
 0 +15 74 202 0 75 79 0 17 66 0 74 64 75 26 29 76 0 0 +16 65 91 0 ?64 80 51 81 0
 0 1 16 80 97 0 ?75 37 65 82 0 0 1 16 51 87 0 ?28 65 83 84 0 0 1 30 255 81 152 0
 65 85 82 0 +-.5 .9 -.25 0 0 1 31 85 213 0 76 78 81 0 +0 .9 -.75 0 0 1 1 0 0 .5
 30 82 150 0 80 81 86 0 +.5 .9 -.75 0 0 -1 30 86 148 0 68 82 87 0 +-.5 .4 -.25 0
 0 1 16 68 75 0 ?61 88 76 86 0 0 1 30 87 147 0 88 86 89 0 +-.5 .4 -.25 1 0 0 16
 88 79 0 ?48 83 68 87 0 0 1 30 89 146 0 83 87 84 0 +.5 .4 -.75 0 0 -1 16 83 83 0
 ?32 51 88 89 0 0 1 30 84 145 0 51 89 90 0 +-.5 .4 -.75 -1 0 0 30 90 144 0 37 84
 91 0 +-.5 .9 -.75 0 -1 0 16 37 78 0 ?36 31 80 90 0 0 1 30 91 143 0 31 90 92 0 +
.5 .9 -.75 0 -1 0 16 31 90 0 ?25 56 37 91 0 0 1 30 92 142 0 56 91 70 0 +.5 .9 -.
25 0 -1 0 16 56 86 0 ?55 62 31 92 0 0 1 30 70 141 0 62 92 21 0 +-.5 .9 -.25 0 -1
 0 31 21 7 0 10 70 7 0 +0 .4 0 0 1 0 0 0 1 1.5 17 55 0 93 32 57 46 52 56 0 94 +1
5 93 122 0 32 95 0 17 32 0 93 30 55 11 94 83 0 50 +17 57 0 93 55 30 39 75 80 0 7
1 -17 94 0 96 69 50 46 32 83 0 0 -15 96 55 0 69 16 0 17 69 0 96 67 94 43 48 88 0
 0 -17 50 0 96 94 67 11 28 51 0 0 -17 67 0 96 50 69 49 61 68 0 0 -17 48 0 53 52
 45 46 69 88 0 55 +14 255 16 72 97 ?18 0 98 5 99 +0 0 18 0 23 81 1 97 337 100 16
 101 0 0 102 103 14 18 27 102 ?104 16 105 5 6 -0 0 104 16 23 15 98 4 0 24 16 96
 50 255 99 3 0 16 106 19 0 +0 .4 0 0 1 0 0 0 1 13 23 10 0 0 0 0 0 0 9 16 50 106
 135 0 63 107 99 0 +-.5 .9 -.25 1 0 0 0 0 -1 50 19 24 0 104 99 6 0 +0 0 0 0 1 0
 0 0 1 14 104 18 108 ?63 18 109 5 19 -0 0 63 18 23 81 1 108 339 100 104 110 0 10
2 111 112 14 63 111 111 ?73 104 60 5 106 -0 0 73 104 23 15 109 19 0 113 104 0 17
 113 0 109 113 113 0 114 20 0 0 -17 114 0 115 114 114 0 113 20 0 0 +16 20 20 0 ?
114 10 62 7 0 0 1 15 115 28 0 114 18 0 81 1 111 340 100 63 116 0 108 117 118 14
 73 115 117 ?95 63 119 5 107 -0 0 95 63 23 81 1 117 341 100 73 120 0 111 121 122
 14 95 119 121 ?123 73 93 5 124 -0 0 123 73 23 15 119 256 0 125 73 53 50 107 136
 0 73 124 106 0 +-.5 .9 -.25 0 0 -1 -1 0 0 50 124 137 0 95 126 107 0 +.5 .9 -.75
 -1 0 0 0 0 1 50 126 138 0 123 127 124 0 +-.5 .9 -.75 0 0 1 1 0 0 14 123 123 128
 ?79 95 129 5 126 -0 0 79 95 23 51 127 210 0 79 130 126 0 -0 .9 -.25 0 0 1 .5 1
 0 0 14 79 200 131 ?132 123 74 5 127 -0 0 132 123 23 51 130 282 0 132 0 127 0 +0
 .9 -1.457106781186548 0 0 1 .25 1 0 0 14 132 267 133 ?0 79 134 5 130 -0 0 0 79
 23 81 1 133 345 100 132 135 0 131 0 136 15 134 270 0 137 132 138 17 137 0 134 1
37 137 0 139 77 0 0 +15 138 271 0 140 132 0 17 140 0 138 140 140 0 125 141 0 0 +
17 125 0 119 125 125 0 140 141 0 0 -16 141 263 0 ?140 77 0 142 0 0 1 16 77 266 0
 ?137 72 141 143 0 0 1 31 142 286 0 141 0 143 0 +0 .9 -.25 0 0 1 1 0 0 .25 31 14
3 285 0 77 142 78 0 -0 .9 -.75 0 0 1 1 0 0 .25 31 78 214 0 72 143 85 0 +0 .9 -.2
5 0 0 1 1 0 0 .5 17 139 0 129 139 139 0 137 77 0 0 -15 129 249 0 139 123 27 15 2
7 126 0 28 123 0 80 255 1 100 144 145 9000 1 1 1 1 1 1 1 1 0 FFFFTFTFFFFFFF1 81
 1 135 314 146 132 0 133 147 0 148 81 1 131 344 100 79 147 0 128 133 149 82 255
 1 136 866451585 81 1 147 313 146 79 0 131 150 135 151 81 1 128 343 100 123 150
 0 121 131 152 82 1 149 -588644226 81 1 150 312 146 123 0 128 153 147 154 81 1 1
21 342 100 95 153 0 117 128 155 82 1 152 529924225 81 1 153 311 146 95 0 121 120
 150 156 82 1 155 530186366 80 1 146 0 157 8001 0 0 0 0 3 5 0 0 0 FFFFTFTFFFFFFF
2 81 1 120 310 146 73 0 117 116 153 158 83 255 3 156 .792156862745098 .819607843
137255 .933333333333333 81 1 116 309 146 63 0 111 110 120 159 83 3 158 .79215686
2745098 .819607843137255 .933333333333333 81 1 110 308 146 104 0 108 160 116 161
 83 3 159 .792156862745098 .819607843137255 .933333333333333 81 1 160 307 146 18
 0 102 101 110 162 83 3 161 .792156862745098 .819607843137255 .933333333333333 8
1 1 102 338 100 18 160 0 97 108 163 81 1 101 306 146 16 0 97 0 160 164 83 3 162
 .792156862745098 .819607843137255 .933333333333333 83 3 164 .792156862745098 .8
19607843137255 .933333333333333 82 1 163 1452736630 79 255 15 157 SDL/TYSA_COLOU
R83 3 154 .792156862745098 .819607843137255 .933333333333333 83 3 151 .792156862
745098 .819607843137255 .933333333333333 83 3 148 .792156862745098 .819607843137
255 .933333333333333 79 14 145 SWEntUnchanged82 1 122 530448513 82 1 118 5307106
54 82 1 112 1452474486 17 24 0 98 24 24 0 165 10 0 0 +17 165 0 105 165 165 0 24
 10 0 0 -15 105 26 0 165 18 115 82 1 103 535560314 17 30 0 93 57 32 34 25 31 0 2
9 -17 75 0 74 66 71 34 57 80 0 0 +17 29 0 27 25 33 34 66 76 0 75 -16 76 181 0 ?6
6 68 72 85 0 0 1 17 36 0 60 61 38 49 33 37 0 67 +19 17 32 0 1 0 9 5 S0 74 4 CI16
 index_map_offset0 0 1 dCCZ20 15 8 0 0 133 166 167 168 169 13 135 2 0 0 0 0 0 0
 0 0 0 0 0 0 81 2 166 230 170 1 0 167 0 0 0 171 81 2 167 236 172 1 166 168 0 0 0
 173 81 2 168 243 174 1 167 169 0 0 0 0 81 1 169 294 175 1 168 13 0 0 176 81 2 1
3 305 177 1 169 2 0 0 0 178 80 2 177 179 180 9000 0 0 0 0 3 5 0 0 0 FFTFFFFFFFFF
FF9 1 82 1 178 1 79 24 180 BODY_IN_LIGHTWEIGHT_PERM80 1 175 181 182 9000 1 1 1 1
 1 1 1 1 0 FFTFFFFFFFFFFF1 82 1 176 22135 79 10 182 BODY_MATCH80 2 174 183 184 9
000 0 0 0 0 3 5 0 0 0 FFTFFFFFFFFFFF9 1 79 16 184 BODY_RECIPE_200180 2 172 185 1
86 9000 0 0 0 0 3 5 0 0 0 FFTFFFFFFFFFFF9 1 82 1 173 64 79 30 186 LAST_BODY_MODI
FYING_FEATURE_ID80 2 170 187 188 9000 0 0 0 0 3 5 0 0 0 FFTFFFFFFFFFFF9 1 82 1 1
71 109 79 19 188 ENT_TIME_STAMP_200180 2 12 189 190 9000 0 0 0 0 3 5 0 0 0 FFTFF
FFFFFFFFF9 1 82 1 14 104 79 12 190 ATOM_ID_20011 0 
