**ABCDEFGHIJKLMNOPQRSTUVWXYZabcdefghijklmnopqrstuvwxyz**************************
**PARASOLID !"#$%&'()*+,-./:;<=>?@[\]^_`{|}~0123456789**************************
**PART1;
MC=AMD64;
MC_MODEL=Intel64 Family 6 Model 94 Stepping 3, GenuineIntel;
MC_ID=unknown;
OS=Windows_NT;
OS_RELEASE=unknown;
FRU=Parasolid Version 32.1, build 255,  1- 1-2021;
APPL=SOLIDWORKS 2021-2021085;
SITE=;
USER=unknown;
FORMAT=text;
GUISE=transmit;
KEY=MachineDesignLink10cm;
FILE=MachineDesignLink10cm.x_t;
DATE=Wed Jun 29 15:45:09 2022;
**PART2;
SCH=SCH_3201255_32001;
USFLD_SIZE=0;
**PART3;
**END_OF_HEADER*****************************************************************
T51 : TRANSMIT FILE created by modeller version 320125523 SCH_3201255_32001_1300
6229 0 12 34 CCCCCCI4 mesh1006 0 I8 polyline1008 0 CCCCCCCDI5 owner1040 0 CCCCCC
I13 boundary_mesh1006 0 I17 boundary_polyline1008 0 CCCA16 index_map_offset0 0 1
 dA9 index_map82 0 A17 node_id_index_map82 0 A20 schema_embedding_map82 0 A5 chi
ld12 0 A14 lowest_node_id0 0 1 dA16 mesh_offset_data206 0 Z1 340 2 3 0 0 0 0 0 0
 1e3 1e-8 0 4 0 1 0 1 1 5 6 7 8 0 0 9 10 11 0 0 0 0 0 0 0 81 255 2 2 332 12 1 13
 0 0 0 0 14 70 11 CI9 list_type0 0 1 uI10 notransmit0 0 1 lCCCDCCDI12 finger_ind
ex0 0 1 dI12 finger_block1012 0 CZ3 0 4 T1 0 0 9 20 1 15 15 13 255 5 99 0 1 0 16
 0 0 17 0 51 255 6 94 0 18 19 0 0 --.05 0 .003 0 0 -1 .005 -1 0 0 30 255 7 98 0
 10 20 0 0 +-.05 -.005 .003 0 0 -1 29 255 8 75 0 21 22 0 -.05 .005 0 19 8 CCCCCC
CA5 owner12 0 Z9 33 0 1 17 0 23 V0 16 255 10 82 0 ?24 0 25 7 0 0 1 18 255 11 30
 0 26 0 27 28 ?1 17 255 26 0 29 30 31 11 32 33 0 34 +18 27 27 0 31 11 35 36 ?1 2
9 28 32 0 11 36 37 -.05 .005 .003 29 36 29 0 27 38 28 .05 .005 .003 29 37 78 0 3
9 28 40 -.05 -.005 0 18 39 69 0 41 42 0 37 ?1 29 40 77 0 42 37 22 .05 -.005 0 18
 42 68 0 43 44 39 40 ?1 29 22 76 0 44 40 8 .05 .005 0 18 44 67 0 45 21 42 22 ?1
 17 45 0 46 47 48 44 49 50 0 51 +18 21 66 0 52 53 44 8 ?1 17 52 0 54 34 51 21 55
 56 0 57 +18 53 21 0 58 35 21 59 ?1 17 58 0 60 24 61 53 62 63 0 30 -18 35 24 0 6
2 27 53 38 ?1 29 59 23 0 53 0 38 -.05 -.005 .003 29 38 26 0 35 59 36 .05 -.005 .
003 17 62 0 29 31 30 35 58 63 0 61 +15 255 29 4 0 30 64 0 17 31 0 29 26 62 27 65
 66 0 47 +17 30 0 29 62 26 53 67 68 0 69 +16 63 9 0 ?62 66 68 70 0 0 1 17 61 0 6
0 58 43 35 48 25 0 65 -15 60 87 0 43 71 0 17 43 0 60 61 24 42 41 72 0 48 +17 48
 0 46 45 65 42 61 25 0 49 +16 25 81 0 ?48 10 73 20 0 0 1 17 65 0 46 48 47 35 31
 66 0 0 -15 46 85 0 45 74 0 17 47 0 46 65 45 27 51 73 0 32 -16 66 13 0 ?31 33 63
 75 0 0 1 16 33 17 0 ?26 76 66 77 0 0 1 31 255 75 15 0 66 70 77 0 +.05 0 .003 0
 0 1 1 0 0 .005 30 70 11 0 63 78 75 0 +-.05 -.005 .003 1 182145964977565e-30 0 3
0 77 19 0 33 75 79 0 +-.05 .005 .003 -1 -182145964977565e-30 0 31 79 74 0 80 77
 81 0 +-.05 0 0 0 0 1 1 0 0 .005 16 80 62 0 ?82 72 83 79 0 0 1 30 81 73 0 72 79
 84 0 +-.05 -.005 0 1 182145964977565e-30 0 16 72 58 0 ?43 50 80 81 0 0 1 31 84
 72 0 50 81 85 0 +.05 0 0 0 0 1 1 0 0 .005 16 50 54 0 ?45 56 72 84 0 0 1 30 85 7
1 0 56 84 86 0 +-.05 .005 0 -1 -182145964977565e-30 0 16 56 50 0 ?52 68 50 85 0
 0 1 30 86 95 0 76 85 87 0 +-.05 .005 .003 0 0 -1 16 76 79 0 ?57 73 33 86 0 0 1
 30 87 96 0 73 86 20 0 +.05 .005 .003 0 0 -1 16 73 80 0 ?51 25 76 87 0 0 1 30 20
 97 0 25 87 7 0 +.05 -.005 .003 0 0 -1 17 51 0 54 52 32 44 47 73 0 55 +15 54 83
 0 52 88 0 17 32 0 54 51 34 27 26 33 0 0 -17 55 0 89 49 90 44 52 56 0 0 -15 89 4
9 0 90 16 91 17 49 0 89 41 55 42 45 50 0 0 -17 90 0 89 55 41 21 82 80 0 0 -17 41
 0 89 90 49 39 43 72 0 24 -17 82 0 92 69 57 39 90 80 0 0 +15 92 89 0 82 18 0 17
 69 0 92 67 82 53 24 10 0 0 -17 57 0 92 82 67 21 34 76 0 90 +17 67 0 92 57 69 11
 30 68 0 0 -17 34 0 54 32 52 11 57 76 0 67 -16 68 5 0 ?30 63 56 78 0 0 1 31 78 7
 0 68 93 70 0 +-.05 0 .003 0 0 1 1 0 0 .005 31 93 196 0 83 94 78 0 +-.05 0 .003
 0 0 1 1 0 0 .0015 16 83 171 0 ?95 80 96 93 0 0 1 31 94 198 0 96 97 93 0 +-.05 0
 -1371604415045032e-33 0 0 -1 -1 0 0 .001499999999999988 16 96 170 0 ?98 83 99 9
4 0 0 1 31 97 248 0 99 100 94 0 +.05 0 .003 0 0 1 1 0 0 .0015 16 99 223 0 ?101 9
6 102 97 0 0 1 31 100 250 0 102 0 97 0 +.05 0 -1371604415045032e-33 0 0 -1 -1 0
 0 .001499999999999988 16 102 222 0 ?103 99 0 100 0 0 1 17 103 0 104 103 103 0 1
05 102 0 0 +15 104 228 0 103 106 107 17 105 0 108 105 105 0 103 102 0 0 -15 108
 213 0 105 16 89 14 255 16 164 109 ?18 0 108 5 110 -0 0 18 0 23 81 1 109 333 111
 16 112 0 0 113 114 14 18 90 113 ?71 16 92 5 6 -0 0 71 16 23 50 255 110 70 0 16
 115 116 0 +-.05 0 0 0 0 1 1 0 0 13 23 34 0 0 0 0 0 0 9 16 50 115 3 0 64 117 110
 0 +-.05 0 .003 0 0 1 1 0 0 50 116 91 0 88 110 118 0 +-.05 .005 .003 18214596497
7565e-30 -1 0 1 182145964977565e-30 0 14 88 84 119 ?64 74 54 5 116 -0 0 64 74 23
 51 118 92 0 74 116 19 0 -.05 0 .003 0 0 -1 .005 -1 0 0 14 74 86 120 ?88 71 46 5
 118 -0 0 88 71 23 50 19 93 0 71 118 6 0 +-.05 -.005 .003 -182145964977565e-30 1
 0 -1 -182145964977565e-30 0 14 71 88 121 ?74 18 60 5 19 -0 0 74 18 23 81 1 121
 337 111 71 122 0 120 123 124 80 255 1 111 125 126 9000 1 1 1 1 1 1 1 1 0 FFFFTF
TFFFFFFF1 81 1 122 309 127 71 0 121 128 129 130 81 1 120 336 111 74 129 0 119 12
1 131 81 1 123 338 111 64 132 0 121 133 134 82 255 1 124 598540401 14 64 1 123 ?
135 88 136 5 115 +0 0 135 88 23 81 1 132 312 127 64 0 123 137 138 139 81 1 133 3
39 111 135 138 0 123 140 141 82 1 134 591462516 14 135 173 133 ?106 64 142 5 117
 -0 0 106 64 23 81 1 138 313 127 135 0 133 132 143 144 81 1 140 340 111 106 143
 0 133 0 145 82 1 141 305266804 14 106 225 140 ?0 135 104 5 146 -0 0 0 135 23 81
 1 143 314 127 106 0 140 138 0 147 82 1 145 309657716 80 1 127 0 148 8001 0 0 0
 0 3 5 0 0 0 FFFFTFTFFFFFFF2 83 255 3 147 .792156862745098 .819607843137255 .933
333333333333 79 255 15 148 SDL/TYSA_COLOUR51 146 247 0 106 0 117 0 +.05 0 0 0 0
 -1 .0015 -1 0 0 51 117 195 0 135 146 115 0 +-.05 0 0 0 0 -1 .0015 -1 0 0 83 3 1
44 .792156862745098 .819607843137255 .933333333333333 15 142 176 0 98 135 149 17
 98 0 142 98 98 0 150 96 0 0 +15 149 177 0 95 135 0 17 95 0 149 95 95 0 151 83 0
 0 +17 151 0 152 151 151 0 95 83 0 0 -15 152 151 0 151 64 29 17 150 0 91 150 150
 0 98 96 0 0 -15 91 163 0 150 16 0 81 1 137 311 127 88 0 119 129 132 153 83 3 13
9 .792156862745098 .819607843137255 .933333333333333 81 1 119 335 111 88 137 0 1
13 120 154 81 1 129 310 127 74 0 120 122 137 155 83 3 153 .792156862745098 .8196
07843137255 .933333333333333 83 3 155 .792156862745098 .819607843137255 .9333333
33333333 81 1 113 334 111 18 128 0 109 119 156 82 1 154 598016113 81 1 128 308 1
27 18 0 113 112 122 157 82 1 156 598802545 81 1 112 307 127 16 0 109 0 128 158 8
3 3 157 .792156862745098 .819607843137255 .933333333333333 83 3 158 .79215686274
5098 .819607843137255 .933333333333333 15 136 202 0 159 64 152 17 159 0 136 159
 159 0 101 99 0 0 -17 101 0 107 101 101 0 159 99 0 0 +15 107 229 0 101 106 0 82
 1 131 598278257 83 3 130 .792156862745098 .819607843137255 .933333333333333 79
 14 126 SWEntUnchanged82 1 114 306511988 17 24 0 60 43 58 39 69 10 0 82 +19 17 1
00 0 1 0 9 5 S0 74 4 CI16 index_map_offset0 0 1 dCCZ20 15 9 0 0 160 161 140 162
 163 164 13 143 2 0 0 0 0 0 0 0 0 0 0 0 81 2 160 124 165 1 0 161 0 0 0 166 81 2
 161 128 167 1 160 162 0 0 0 168 81 1 162 258 169 1 161 163 0 0 170 81 2 163 268
 171 1 162 164 0 0 172 0 81 2 164 301 173 1 163 13 0 0 0 174 81 2 13 304 175 1 1
64 2 0 0 0 0 80 2 175 176 177 9000 0 0 0 0 3 5 0 0 0 FFTFFFFFFFFFFF9 1 79 16 177
 BODY_RECIPE_200180 2 173 178 179 9000 0 0 0 0 3 5 0 0 0 FFTFFFFFFFFFFF9 1 82 1
 174 1 79 24 179 BODY_IN_LIGHTWEIGHT_PERM80 2 171 180 181 8004 0 0 0 0 3 5 0 0 0
 FFTFFFFFFFFFFF2 3 83 1 172 1 79 16 181 SDL/TYSA_DENSITY80 1 169 182 183 9000 1
 1 1 1 1 1 1 1 0 FFTFFFFFFFFFFF1 82 1 170 74559 79 10 183 BODY_MATCH80 2 167 184
 185 9000 0 0 0 0 3 5 0 0 0 FFTFFFFFFFFFFF9 1 82 1 168 52 79 30 185 LAST_BODY_MO
DIFYING_FEATURE_ID80 2 165 186 187 9000 0 0 0 0 3 5 0 0 0 FFTFFFFFFFFFFF9 1 82 1
 166 112 79 19 187 ENT_TIME_STAMP_200180 2 12 188 189 9000 0 0 0 0 3 5 0 0 0 FFT
FFFFFFFFFFF9 1 82 1 14 102 79 12 189 ATOM_ID_20011 0 
