**ABCDEFGHIJKLMNOPQRSTUVWXYZabcdefghijklmnopqrstuvwxyz**************************
**PARASOLID !"#$%&'()*+,-./:;<=>?@[\]^_`{|}~0123456789**************************
**PART1;
MC=AMD64;
MC_MODEL=Intel64 Family 6 Model 94 Stepping 3, GenuineIntel;
MC_ID=unknown;
OS=Windows_NT;
OS_RELEASE=unknown;
FRU=Parasolid Version 32.1, build 255,  1- 1-2021;
APPL=SOLIDWORKS 2021-2021085;
SITE=;
USER=unknown;
FORMAT=text;
GUISE=transmit;
KEY=MachineDesignLink6p5cm;
FILE=MachineDesignLink6p5cm.x_t;
DATE=Wed Jun 29 15:45:49 2022;
**PART2;
SCH=SCH_3201255_32001;
USFLD_SIZE=0;
**PART3;
**END_OF_HEADER*****************************************************************
T51 : TRANSMIT FILE created by modeller version 320125523 SCH_3201255_32001_1300
6229 0 12 34 CCCCCCI4 mesh1006 0 I8 polyline1008 0 CCCCCCCDI5 owner1040 0 CCCCCC
I13 boundary_mesh1006 0 I17 boundary_polyline1008 0 CCCA16 index_map_offset0 0 1
 dA9 index_map82 0 A17 node_id_index_map82 0 A20 schema_embedding_map82 0 A5 chi
ld12 0 A14 lowest_node_id0 0 1 dA16 mesh_offset_data206 0 Z1 345 2 3 0 0 0 0 0 0
 1e3 1e-8 0 4 0 1 0 1 1 5 6 7 8 0 0 9 10 11 0 0 0 0 0 0 0 81 255 2 2 337 12 1 13
 0 0 0 0 14 70 11 CI9 list_type0 0 1 uI10 notransmit0 0 1 lCCCDCCDI12 finger_ind
ex0 0 1 dI12 finger_block1012 0 CZ3 0 4 T1 0 0 9 20 1 15 15 13 255 5 99 0 1 0 16
 0 0 17 0 51 255 6 94 0 16 18 0 0 --.0325 0 .003 0 0 -1 .005 -1 0 0 30 255 7 98
 0 10 19 0 0 +-.0325 -.005 .003 0 0 -1 29 255 8 75 0 20 21 0 -.0325 .005 0 19 8
 CCCCCCCA5 owner12 0 Z9 33 0 1 17 0 22 V0 16 255 10 82 0 ?23 0 24 7 0 0 1 18 255
 11 30 0 25 0 26 27 ?1 17 255 25 0 28 29 30 11 31 32 0 33 +18 26 27 0 30 11 34 3
5 ?1 29 27 32 0 11 35 36 -.0325 .005 .003 29 35 29 0 26 37 27 .0325 .005 .003 29
 36 78 0 38 27 39 -.0325 -.005 0 18 38 69 0 40 41 0 36 ?1 29 39 77 0 41 36 21 .0
325 -.005 0 18 41 68 0 42 43 38 39 ?1 29 21 76 0 43 39 8 .0325 .005 0 18 43 67 0
 44 20 41 21 ?1 17 44 0 45 46 47 43 48 49 0 50 +18 20 66 0 51 52 43 8 ?1 17 51 0
 53 33 50 20 54 55 0 56 +18 52 21 0 57 34 20 58 ?1 17 57 0 59 23 60 52 61 62 0 2
9 -18 34 24 0 61 26 52 37 ?1 29 58 23 0 52 0 37 -.0325 -.005 .003 29 37 26 0 34
 58 35 .0325 -.005 .003 17 61 0 28 30 29 34 57 62 0 60 +15 255 28 4 0 29 63 0 17
 30 0 28 25 61 26 64 65 0 46 +17 29 0 28 61 25 52 66 67 0 68 +16 62 9 0 ?61 65 6
7 69 0 0 1 17 60 0 59 57 42 34 47 24 0 64 -15 59 87 0 42 70 0 17 42 0 59 60 23 4
1 40 71 0 47 +17 47 0 45 44 64 41 60 24 0 48 +16 24 81 0 ?47 10 72 19 0 0 1 17 6
4 0 45 47 46 34 30 65 0 0 -15 45 85 0 44 73 0 17 46 0 45 64 44 26 50 72 0 31 -16
 65 13 0 ?30 32 62 74 0 0 1 16 32 17 0 ?25 75 65 76 0 0 1 31 255 74 15 0 65 69 7
6 0 +.0325 119403062916867e-31 .003 0 0 1 1 0 0 .005 30 69 11 0 62 77 74 0 +-.03
25 -.005 .003 1 186816374335964e-30 0 30 76 19 0 32 74 78 0 +-.0325 .005 .003 -1
 -186816374335964e-30 0 31 78 74 0 79 76 80 0 +-.0325 0 0 0 0 1 1 0 0 .005 16 79
 62 0 ?81 71 82 78 0 0 1 30 80 73 0 71 78 83 0 +-.0325 -.005 0 1 186816374335964
e-30 0 16 71 58 0 ?42 49 79 80 0 0 1 31 83 72 0 49 80 84 0 +.0325 11940306291686
7e-31 0 0 0 1 1 0 0 .005 16 49 54 0 ?44 55 71 83 0 0 1 30 84 71 0 55 83 85 0 +-.
0325 .005 0 -1 -186816374335964e-30 0 16 55 50 0 ?51 67 49 84 0 0 1 30 85 95 0 7
5 84 86 0 +-.0325 .005 .003 0 0 -1 16 75 79 0 ?56 72 32 85 0 0 1 30 86 96 0 72 8
5 19 0 +.0325 .005 .003 0 0 -1 16 72 80 0 ?50 24 75 86 0 0 1 30 19 97 0 24 86 7
 0 +.0325 -.005 .003 0 0 -1 17 50 0 53 51 31 43 46 72 0 54 +15 53 83 0 51 87 0 1
7 31 0 53 50 33 26 25 32 0 0 -17 54 0 88 48 89 43 51 55 0 0 -15 88 49 0 89 90 0
 17 48 0 88 40 54 41 44 49 0 0 -17 89 0 88 54 40 20 81 79 0 0 -17 40 0 88 89 48
 38 42 71 0 23 -17 81 0 91 68 56 38 89 79 0 0 +15 91 89 0 81 16 0 17 68 0 91 66
 81 52 23 10 0 0 -17 56 0 91 81 66 20 33 75 0 89 +17 66 0 91 56 68 11 29 67 0 0
 -17 33 0 53 31 51 11 56 75 0 66 -16 67 5 0 ?29 62 55 77 0 0 1 31 77 7 0 67 92 6
9 0 +-.0325 0 .003 0 0 1 1 0 0 .005 31 92 200 0 82 93 77 0 +-.0325 0 .003 0 0 1
 1 0 0 .0015 16 82 175 0 ?94 79 95 92 0 0 1 31 93 202 0 95 96 92 0 +-.0325 0 -13
71604415045032e-33 0 0 -1 -1 0 0 .001499999999999988 16 95 174 0 ?97 82 98 93 0
 0 1 31 96 252 0 98 99 93 0 +.0325 119403062916867e-31 .003 0 0 1 1 0 0 .0015 16
 98 227 0 ?100 95 101 96 0 0 1 31 99 254 0 101 0 96 0 +.0325 119403062916867e-31
 -1371604415045032e-33 0 0 -1 -1 0 0 .001499999999999988 16 101 226 0 ?102 98 0
 99 0 0 1 17 102 0 103 102 102 0 104 101 0 0 +15 103 232 0 102 105 106 17 104 0
 107 104 104 0 102 101 0 0 -15 107 217 0 104 90 108 14 255 90 48 109 ?110 63 107
 5 111 -0 0 110 63 22 15 108 165 0 112 90 88 17 112 0 108 112 112 0 97 95 0 0 -1
7 97 0 113 97 97 0 112 95 0 0 +15 113 180 0 97 110 114 14 110 177 115 ?105 90 11
3 5 116 -0 0 105 90 22 15 114 181 0 94 110 0 17 94 0 114 94 94 0 117 82 0 0 +17
 117 0 118 117 117 0 94 82 0 0 -15 118 154 0 117 63 28 14 63 1 119 ?90 87 120 5
 121 +0 0 90 87 22 81 1 119 340 122 63 123 0 115 124 125 14 87 84 124 ?63 73 53
 5 126 -0 0 63 73 22 15 120 206 0 127 63 118 50 255 121 3 0 63 116 111 0 +-.0325
 0 .003 0 0 1 1 0 0 13 22 34 0 0 0 0 0 0 9 16 14 16 90 128 ?70 0 91 5 6 -0 0 70
 0 22 81 1 128 342 122 16 129 0 124 130 131 14 70 88 130 ?73 16 59 5 18 -0 0 73
 16 22 81 1 130 343 122 70 132 0 128 133 134 14 73 86 133 ?87 70 45 5 135 -0 0 8
7 70 22 50 18 93 0 70 135 6 0 +-.0325 -.005 .003 -186816374335964e-30 1 0 -1 -18
6816374335964e-30 0 51 135 92 0 73 126 18 0 -.0325 119403062916867e-31 .003 0 0
 -1 .005 -1 0 0 50 126 91 0 87 111 135 0 +-.0325 .005 .003 186816374335964e-30 -
1 0 1 186816374335964e-30 0 50 111 70 0 90 121 126 0 +-.0325 0 0 0 0 1 1 0 0 81
 1 133 344 122 73 136 0 130 137 138 80 255 1 122 139 140 9000 1 1 1 1 1 1 1 1 0
 FFFFTFTFFFFFFF1 81 1 136 314 141 73 0 133 132 142 143 81 1 137 345 122 105 144
 0 133 0 145 82 255 1 138 -1750400902 14 105 229 137 ?0 110 103 5 146 -0 0 0 110
 22 81 1 144 319 141 105 0 137 147 0 148 82 1 145 -1699217283 80 1 141 0 149 800
1 0 0 0 0 3 5 0 0 0 FFFFTFTFFFFFFF2 81 1 147 318 141 110 0 115 150 144 151 83 25
5 3 148 .792156862745098 .819607843137255 .933333333333333 81 1 115 339 122 110
 147 0 109 119 152 81 1 150 317 141 90 0 109 123 147 153 83 3 151 .7921568627450
98 .819607843137255 .933333333333333 81 1 109 338 122 90 150 0 0 115 154 81 1 12
3 316 141 63 0 119 142 150 155 83 3 153 .792156862745098 .819607843137255 .93333
3333333333 81 1 142 315 141 87 0 124 136 123 156 83 3 155 .792156862745098 .8196
07843137255 .933333333333333 81 1 124 341 122 87 142 0 119 128 157 83 3 156 .792
156862745098 .819607843137255 .933333333333333 82 1 157 -1750663046 82 1 154 -17
51580547 82 1 152 -1703673731 79 255 15 149 SDL/TYSA_COLOUR51 146 251 0 105 0 11
6 0 +.0325 119403062916867e-31 0 0 0 -1 .0015 -1 0 0 51 116 199 0 110 146 121 0
 +-.0325 0 0 0 0 -1 .0015 -1 0 0 81 1 132 313 141 70 0 130 129 136 158 83 3 143
 .792156862745098 .819607843137255 .933333333333333 81 1 129 312 141 16 0 128 0
 132 159 83 3 158 .792156862745098 .819607843137255 .933333333333333 83 3 159 .7
92156862745098 .819607843137255 .933333333333333 79 14 140 SWEntUnchanged82 1 13
4 -1750138758 82 1 131 -1749876614 17 127 0 120 127 127 0 100 98 0 0 -17 100 0 1
06 100 100 0 127 98 0 0 +15 106 233 0 100 105 0 82 1 125 -1757216643 17 23 0 59
 42 57 38 68 10 0 81 +19 17 100 0 1 0 9 5 S0 74 4 CI16 index_map_offset0 0 1 dCC
Z20 15 9 0 0 160 161 137 162 163 164 13 144 2 0 0 0 0 0 0 0 0 0 0 0 81 2 160 124
 165 1 0 161 0 0 0 166 81 2 161 128 167 1 160 162 0 0 0 168 81 1 162 262 169 1 1
61 163 0 0 170 81 2 163 273 171 1 162 164 0 0 172 0 81 2 164 306 173 1 163 13 0
 0 0 174 81 2 13 309 175 1 164 2 0 0 0 0 80 2 175 176 177 9000 0 0 0 0 3 5 0 0 0
 FFTFFFFFFFFFFF9 1 79 16 177 BODY_RECIPE_200180 2 173 178 179 9000 0 0 0 0 3 5 0
 0 0 FFTFFFFFFFFFFF9 1 82 1 174 1 79 24 179 BODY_IN_LIGHTWEIGHT_PERM80 2 171 180
 181 8004 0 0 0 0 3 5 0 0 0 FFTFFFFFFFFFFF2 3 83 1 172 1 79 16 181 SDL/TYSA_DENS
ITY80 1 169 182 183 9000 1 1 1 1 1 1 1 1 0 FFTFFFFFFFFFFF1 82 1 170 366401 79 10
 183 BODY_MATCH80 2 167 184 185 9000 0 0 0 0 3 5 0 0 0 FFTFFFFFFFFFFF9 1 82 1 16
8 52 79 30 185 LAST_BODY_MODIFYING_FEATURE_ID80 2 165 186 187 9000 0 0 0 0 3 5 0
 0 0 FFTFFFFFFFFFFF9 1 82 1 166 119 79 19 187 ENT_TIME_STAMP_200180 2 12 188 189
 9000 0 0 0 0 3 5 0 0 0 FFTFFFFFFFFFFF9 1 82 1 14 102 79 12 189 ATOM_ID_20011 0
 
