**ABCDEFGHIJKLMNOPQRSTUVWXYZabcdefghijklmnopqrstuvwxyz**************************
**PARASOLID !"#$%&'()*+,-./:;<=>?@[\]^_`{|}~0123456789**************************
**PART1;
MC=AMD64;
MC_MODEL=Intel64 Family 6 Model 60 Stepping 3, GenuineIntel;
MC_ID=unknown;
OS=Windows_NT;
OS_RELEASE=unknown;
FRU=Parasolid Version 31.1, build 290,  3- 9-2020;
APPL=SOLIDWORKS 2020-2020128;
SITE=;
USER=unknown;
FORMAT=text;
GUISE=transmit;
KEY=MechDesignLink10m;
FILE=MechDesignLink10m.x_t;
DATE=Fri Jul  1 17:12:42 2022;
**PART2;
SCH=SCH_3101290_31100;
USFLD_SIZE=0;
**PART3;
**END_OF_HEADER*****************************************************************
T51 : TRANSMIT FILE created by modeller version 310129023 SCH_3101290_31100_1300
6222 0 12 34 CCCCCCI4 mesh1006 0 I8 polyline1008 0 CCCCCCCDI5 owner1040 0 CCCCCC
I13 boundary_mesh1006 0 I17 boundary_polyline1008 0 CCCA16 index_map_offset0 0 1
 dA9 index_map82 0 A17 node_id_index_map82 0 A20 schema_embedding_map82 0 A5 chi
ld12 0 A14 lowest_node_id0 0 1 dA16 mesh_offset_data206 0 Z1 311 2 3 0 0 0 0 0 0
 1e3 1e-8 0 4 0 1 0 1 1 5 6 7 8 0 0 9 10 11 0 0 0 0 0 0 0 81 255 2 2 303 12 1 13
 0 0 0 0 14 70 11 CI9 list_type0 0 1 uI10 notransmit0 0 1 lCCCDCCDI12 finger_ind
ex0 0 1 dI12 finger_block1012 0 CZ3 0 4 T1 0 0 8 20 1 15 15 13 255 5 99 0 1 0 16
 0 0 17 0 51 255 6 94 0 16 18 0 0 +-5 0 -.2 0 0 1 .25 1 0 0 30 255 7 98 0 19 20
 0 0 +-5 -.25 -.2 0 0 1 29 255 8 75 0 21 22 0 -5 .25 0 19 8 CCCCCCCA5 owner12 0
 Z9 33 0 1 17 0 23 V0 16 255 10 79 0 ?24 0 25 26 0 0 1 18 255 11 30 0 27 0 28 29
 ?1 17 255 27 0 30 31 32 11 24 10 0 33 -18 28 27 0 34 11 35 36 ?1 29 29 32 0 11
 36 37 -5 .25 -.2 29 36 29 0 28 38 29 5 .2500000000000035 -.2 29 37 78 0 39 29 4
0 -5 -.25 0 18 39 69 0 41 42 0 37 ?1 29 40 77 0 42 37 22 5 -.25 0 18 42 68 0 43
 44 39 40 ?1 29 22 76 0 44 40 8 5 .2500000000000035 0 18 44 67 0 45 21 42 22 ?1
 17 45 0 46 47 48 44 34 25 0 49 +18 21 66 0 24 50 44 8 ?1 17 24 0 51 52 53 21 27
 10 0 32 +18 50 21 0 54 35 21 55 ?1 17 54 0 56 57 58 50 41 19 0 59 -18 35 24 0 6
0 28 50 38 ?1 29 55 23 0 50 0 38 -5 -.25 -.2 29 38 26 0 35 55 36 5 -.25 -.2 17 6
0 0 46 48 47 35 43 61 0 62 -15 255 46 85 0 47 63 0 17 48 0 46 45 60 28 62 64 0 6
5 +17 47 0 46 60 45 42 49 66 0 67 -17 43 0 56 58 57 42 60 61 0 47 +16 61 81 0 ?4
3 25 19 20 0 0 1 17 62 0 68 59 65 35 48 64 0 57 -15 68 4 0 33 69 0 17 59 0 68 33
 62 50 57 70 0 31 -17 65 0 68 62 33 28 53 71 0 0 -16 64 13 0 ?48 71 70 72 0 0 1
 17 57 0 56 43 54 35 59 70 0 0 +15 56 87 0 58 73 0 16 70 9 0 ?57 64 74 75 0 0 1
 16 74 5 0 ?31 70 76 77 0 0 1 30 75 11 0 70 77 72 0 +-5 -.25 -.2 1 1831867990631
51e-30 0 31 255 77 7 0 74 78 75 0 +-5 0 -.2 0 0 1 1 0 0 .25 31 72 15 0 64 75 79
 0 +5 183697019872103e-29 -.2 0 0 1 1 0 0 .25 30 79 19 0 71 72 80 0 +-5 .25 -.2
 -1 -183186799063151e-30 0 16 71 17 0 ?53 19 64 79 0 0 1 31 80 74 0 81 79 82 0 +
-5 0 0 0 0 1 1 0 0 .25 16 81 62 0 ?83 84 85 80 0 0 1 30 82 73 0 84 80 86 0 +-5 -
.25 0 1 183186799063151e-30 0 16 84 58 0 ?67 66 81 82 0 0 1 31 86 72 0 66 82 87
 0 +5 183697019872103e-29 0 0 0 1 1 0 0 .25 16 66 54 0 ?49 76 84 86 0 0 1 30 87
 71 0 76 86 26 0 +-5 .25 0 -1 -183186799063151e-30 0 16 76 50 0 ?88 74 66 87 0 0
 1 30 26 95 0 10 87 89 0 +-5 .25 -.2 0 0 1 30 89 96 0 25 26 20 0 +5 .25000000000
00035 -.2 0 0 1 16 25 80 0 ?45 10 61 89 0 0 1 30 20 97 0 61 89 7 0 +5 -.25 -.2 0
 0 1 17 88 0 90 83 49 21 52 76 0 0 +15 90 49 0 83 91 0 17 83 0 90 67 88 39 32 81
 0 0 +17 49 0 90 88 67 44 47 66 0 52 +17 52 0 51 34 24 44 88 76 0 0 -15 51 83 0
 52 92 0 17 34 0 51 53 52 28 45 25 0 48 -17 53 0 51 24 34 11 65 71 0 0 +14 255 9
2 84 93 ?63 16 51 5 94 +0 0 63 16 23 81 1 93 304 95 92 96 0 0 97 98 14 63 86 97
 ?73 92 46 5 99 +0 0 73 92 23 14 16 90 100 ?92 0 30 5 6 +0 0 92 0 23 50 255 94 9
1 0 92 101 99 0 +-5 .25 -.2 -183186799063151e-30 1 0 -1 -183186799063151e-30 0 1
3 23 34 0 0 0 0 0 0 9 16 50 101 70 0 91 102 94 0 +-5 0 0 0 0 1 1 0 0 51 99 92 0
 63 94 18 0 +5 183697019872103e-29 -.2 0 0 1 .25 1 0 0 50 18 93 0 73 99 6 0 +-5
 -.25 -.2 183186799063151e-30 -1 0 1 183186799063151e-30 0 14 73 88 103 ?69 63 5
6 5 18 +0 0 69 63 23 81 1 103 307 95 73 104 0 100 105 106 14 69 1 105 ?91 73 107
 5 102 -0 0 91 73 23 81 1 105 308 95 69 108 0 103 109 110 14 91 48 109 ?111 69 1
12 5 101 +0 0 111 69 23 15 107 226 0 113 69 114 50 102 3 0 69 115 101 0 +-5 0 -.
2 0 0 1 1 0 0 51 115 203 0 111 116 102 0 +-5 0 -.200001 0 0 1 .1 1 0 0 14 111 18
9 117 ?118 91 119 5 115 -0 0 118 91 23 51 116 251 0 118 0 115 0 +5 1836970198721
03e-29 -.200001 0 0 1 .1 1 0 0 14 118 237 120 ?0 111 121 5 116 -0 0 0 111 23 81
 1 120 311 95 118 122 0 117 0 123 15 121 240 0 124 118 125 17 124 0 121 124 124
 0 126 127 0 0 +15 125 241 0 128 118 0 17 128 0 125 128 128 0 113 129 0 0 +17 11
3 0 107 113 113 0 128 129 0 0 -16 129 236 0 ?128 130 127 131 0 0 1 16 130 185 0
 ?132 85 129 133 0 0 1 16 127 233 0 ?124 129 0 134 0 0 1 31 131 254 0 129 134 13
3 0 -5 183697019872103e-29 -.2 0 0 1 1 0 0 .1 31 134 255 0 127 0 131 0 +5 183697
019872103e-29 0 0 0 1 1 0 0 .1 31 133 207 0 130 131 78 0 +-5 0 0 0 0 1 1 0 0 .1
 31 78 206 0 85 133 77 0 --5 0 -.2 0 0 1 1 0 0 .1 16 85 188 0 ?135 81 130 78 0 0
 1 17 135 0 136 135 135 0 137 85 0 0 +15 136 193 0 135 111 0 17 137 0 114 137 13
7 0 135 85 0 0 -15 114 178 0 137 69 68 17 132 0 119 132 132 0 138 130 0 0 +15 11
9 192 0 132 111 136 17 138 0 139 138 138 0 132 130 0 0 -15 139 172 0 138 91 90 1
7 126 0 112 126 126 0 124 127 0 0 -15 112 220 0 126 91 139 80 255 1 95 140 141 9
000 1 1 1 1 1 1 1 1 0 FFFFTFTFFFFFFF1 81 1 122 285 142 118 0 120 143 0 144 81 1
 117 310 95 111 143 0 109 120 145 82 255 1 123 1499332822 81 1 143 284 142 111 0
 117 146 122 147 81 1 109 309 95 91 146 0 105 117 148 82 1 145 -402980656 81 1 1
46 283 142 91 0 109 108 143 149 82 1 148 148439254 80 1 142 0 150 8001 0 0 0 0 3
 5 0 0 0 FFFFTFTFFFFFFF2 81 1 108 282 142 69 0 105 104 146 151 83 255 3 149 .792
156862745098 .819607843137255 .933333333333333 81 1 104 281 142 73 0 103 152 108
 153 83 3 151 .792156862745098 .819607843137255 .933333333333333 81 1 152 280 14
2 63 0 97 96 104 154 83 3 153 .792156862745098 .819607843137255 .933333333333333
 81 1 97 305 95 63 152 0 93 100 155 81 1 96 279 142 92 0 93 156 152 157 83 3 154
 .792156862745098 .819607843137255 .933333333333333 81 1 156 278 142 16 0 100 0
 96 158 83 3 157 .792156862745098 .819607843137255 .933333333333333 81 1 100 306
 95 16 156 0 97 103 159 83 3 158 .792156862745098 .819607843137255 .933333333333
333 82 1 159 149749950 82 1 155 149487806 79 255 15 150 SDL/TYSA_COLOUR83 3 147
 .792156862745098 .819607843137255 .933333333333333 83 3 144 .792156862745098 .8
19607843137255 .933333333333333 79 14 141 SWEntUnchanged82 1 110 142803158 82 1
 106 149618878 15 30 89 0 32 16 0 17 32 0 30 27 41 21 83 81 0 88 -17 41 0 30 32
 31 39 54 19 0 58 +17 31 0 30 41 27 50 33 74 0 0 +16 19 82 0 ?41 61 71 7 0 0 1 1
7 58 0 56 54 43 39 67 84 0 83 -17 67 0 90 49 83 42 58 84 0 0 +17 33 0 68 65 59 1
1 31 74 0 53 -82 1 98 149356734 19 17 100 0 1 0 9 5 S0 74 4 CI16 index_map_offse
t0 0 1 dCCZ20 15 8 0 0 160 161 120 162 163 13 122 2 0 0 0 0 0 0 0 0 0 0 0 0 81 2
 160 124 164 1 0 161 0 0 0 165 81 2 161 128 166 1 160 162 0 0 0 167 81 2 162 152
 168 1 161 163 0 0 0 169 81 2 163 217 170 1 162 13 0 0 0 0 81 1 13 263 171 1 163
 2 0 0 172 80 1 171 173 174 9000 1 1 1 1 1 1 1 1 0 FFTFFFFFFFFFFF1 82 1 172 3298
57 79 10 174 BODY_MATCH80 2 170 175 176 9000 0 0 0 0 3 5 0 0 0 FFTFFFFFFFFFFF9 1
 79 16 176 BODY_RECIPE_200180 2 168 177 178 9000 0 0 0 0 3 5 0 0 0 FFTFFFFFFFFFF
F9 1 82 1 169 1 79 24 178 BODY_IN_LIGHTWEIGHT_PERM80 2 166 179 180 9000 0 0 0 0
 3 5 0 0 0 FFTFFFFFFFFFFF9 1 82 1 167 92 79 30 180 LAST_BODY_MODIFYING_FEATURE_I
D80 2 164 181 182 9000 0 0 0 0 3 5 0 0 0 FFTFFFFFFFFFFF9 1 82 1 165 175 79 19 18
2 ENT_TIME_STAMP_200180 2 12 183 184 9000 0 0 0 0 3 5 0 0 0 FFTFFFFFFFFFFF9 1 82
 1 14 104 79 12 184 ATOM_ID_20011 0 
