**ABCDEFGHIJKLMNOPQRSTUVWXYZabcdefghijklmnopqrstuvwxyz**************************
**PARASOLID !"#$%&'()*+,-./:;<=>?@[\]^_`{|}~0123456789**************************
**PART1;
MC=AMD64;
MC_MODEL=Intel64 Family 6 Model 60 Stepping 3, GenuineIntel;
MC_ID=unknown;
OS=Windows_NT;
OS_RELEASE=unknown;
FRU=Parasolid Version 31.1, build 290,  3- 9-2020;
APPL=SOLIDWORKS 2020-2020128;
SITE=;
USER=unknown;
FORMAT=text;
GUISE=transmit;
KEY=MechDesignLink12cmSlot;
FILE=MechDesignLink12cmSlot.x_t;
DATE=Fri Jul  1 16:47:16 2022;
**PART2;
SCH=SCH_3101290_31100;
USFLD_SIZE=0;
**PART3;
**END_OF_HEADER*****************************************************************
T51 : TRANSMIT FILE created by modeller version 310129023 SCH_3101290_31100_1300
6222 0 12 34 CCCCCCI4 mesh1006 0 I8 polyline1008 0 CCCCCCCDI5 owner1040 0 CCCCCC
I13 boundary_mesh1006 0 I17 boundary_polyline1008 0 CCCA16 index_map_offset0 0 1
 dA9 index_map82 0 A17 node_id_index_map82 0 A20 schema_embedding_map82 0 A5 chi
ld12 0 A14 lowest_node_id0 0 1 dA16 mesh_offset_data206 0 Z1 472 2 3 0 0 0 0 0 0
 1e3 1e-8 0 4 0 1 0 1 1 5 6 7 8 0 0 9 10 11 0 0 0 0 0 0 0 81 255 2 2 460 12 1 13
 0 0 0 0 14 70 11 CI9 list_type0 0 1 uI10 notransmit0 0 1 lCCCDCCDI12 finger_ind
ex0 0 1 dI12 finger_block1012 0 CZ3 0 4 T1 0 0 8 20 1 15 15 13 255 5 99 0 1 0 16
 0 0 17 0 51 255 6 94 0 16 18 0 0 +-.06 0 -.003 0 0 1 .005 1 0 0 30 255 7 98 0 1
9 20 0 0 +-.06 -.005 -.003 0 0 1 29 255 8 137 0 11 21 0 .0375 -.0015 -.003 19 8
 CCCCCCCA5 owner12 0 Z9 33 0 1 17 0 22 V0 16 255 10 79 0 ?23 0 24 25 0 0 1 18 25
5 11 135 0 26 0 27 8 ?1 17 255 26 0 28 29 30 11 31 32 0 33 -18 27 112 0 34 11 35
 21 ?1 17 34 0 36 37 38 27 39 40 0 41 +18 35 30 0 42 27 43 44 ?1 29 21 114 0 27
 45 8 -.0375 -.0015 0 29 45 75 0 46 47 21 -.06 .005 0 18 46 66 0 23 48 49 45 ?1
 29 47 76 0 49 50 45 .06 .005 0 18 49 67 0 51 46 52 47 ?1 29 50 77 0 52 53 47 .0
6 -.005 0 18 52 68 0 54 49 55 50 ?1 29 53 78 0 55 44 50 -.06 -.005 0 18 55 69 0
 56 52 57 53 ?1 29 44 32 0 35 58 53 -.06 .005 -.003 29 58 29 0 43 59 44 .06 .005
 -.003 18 43 27 0 60 35 61 58 ?1 29 59 26 0 61 62 58 .06 -.005 -.003 18 61 24 0
 63 43 48 59 ?1 29 62 23 0 48 64 59 -.06 -.005 -.003 18 48 21 0 65 61 46 62 ?1 2
9 64 231 0 66 67 62 -.0375 .0015 0 18 66 184 0 38 68 69 64 ?1 29 67 232 0 69 70
 64 .0375 .00150000000000003 0 18 69 186 0 71 66 72 67 ?1 29 70 233 0 72 73 67 .
0375 -.0015 0 18 72 188 0 29 69 0 70 ?1 29 73 235 0 57 74 70 -.0375 .0015 -.003
 18 57 181 0 75 55 76 73 ?1 29 74 236 0 76 77 73 .0375 .00150000000000003 -.003
 18 76 183 0 30 57 68 74 ?1 29 77 238 0 68 0 74 -.0375 -.0015 -.003 18 68 187 0
 37 76 66 77 ?1 17 37 0 36 78 34 68 41 79 0 80 -15 255 36 192 0 34 81 0 17 78 0
 36 38 37 57 82 83 0 84 -17 41 0 85 86 80 27 37 79 0 87 +16 79 156 0 ?41 88 89 9
0 0 0 1 17 80 0 85 41 33 68 91 92 0 82 -15 85 204 0 86 93 0 17 33 0 85 80 86 11
 29 88 0 91 -17 91 0 94 31 82 11 80 92 0 0 +16 92 165 0 ?91 32 83 95 0 0 1 17 82
 0 94 91 84 68 78 83 0 0 +15 94 133 0 84 96 97 17 84 0 94 82 31 57 98 89 0 0 +16
 83 153 0 ?82 92 99 100 0 0 1 16 99 178 0 ?101 83 102 103 0 0 1 31 255 100 230 0
 83 104 95 0 +-.0375 0 -.003 0 0 1 1 0 0 .0015 31 104 345 0 105 106 100 0 +.06 2
204364238465235e-32 -.003 0 0 1 1 0 0 .0015 30 95 229 0 92 100 107 0 +-.0375 -.0
015 -.003 1 1850371707708595e-31 0 31 107 228 0 32 95 108 0 +.0375 1377727649040
772e-32 -.003 0 0 1 1 0 0 .0015 16 32 161 0 ?31 89 92 107 0 0 1 30 108 227 0 89
 107 109 0 +-.0375 .0015 -.003 -1 -1850371707708595e-31 0 16 89 157 0 ?84 79 32
 108 0 0 1 31 109 226 0 40 108 110 0 +-.0375 0 0 0 0 1 1 0 0 .0015 16 40 169 0 ?
34 111 105 109 0 0 1 30 110 225 0 111 109 112 0 +-.0375 -.0015 0 1 1850371707708
595e-31 0 16 111 172 0 ?86 102 40 110 0 0 1 31 112 224 0 102 110 103 0 +.0375 13
77727649040772e-32 0 0 0 1 1 0 0 .0015 16 102 175 0 ?113 99 111 112 0 0 1 30 103
 223 0 99 112 114 0 +-.0375 .0015 0 -1 -1850371707708595e-31 0 30 114 222 0 115
 103 116 0 +-.0375 .0015 -.003 0 0 1 16 115 160 0 ?38 117 118 114 0 0 1 30 116 2
21 0 118 114 119 0 +.0375 .00150000000000003 -.003 0 0 1 16 118 164 0 ?71 115 88
 116 0 0 1 30 119 220 0 88 116 90 0 +.0375 -.0015 -.003 0 0 1 16 88 168 0 ?29 11
8 79 119 0 0 1 30 90 219 0 79 119 120 0 +-.0375 -.0015 -.003 0 0 1 31 120 7 0 12
1 90 122 0 +-.06 0 -.003 0 0 1 1 0 0 .005 16 121 5 0 ?123 124 125 120 0 0 1 30 1
22 11 0 124 120 126 0 +-.06 -.005 -.003 1 1807003620809175e-31 0 16 124 9 0 ?127
 128 121 122 0 0 1 31 126 15 0 128 122 129 0 +.06 2204364238465235e-32 -.003 0 0
 1 1 0 0 .005 16 128 13 0 ?130 131 124 126 0 0 1 30 129 19 0 131 126 132 0 +-.06
 .005 -.003 -1 -1807003620809175e-31 0 16 131 17 0 ?133 19 128 129 0 0 1 31 132
 74 0 117 129 134 0 +-.06 0 0 0 0 1 1 0 0 .005 16 117 62 0 ?135 136 115 132 0 0
 1 30 134 73 0 136 132 137 0 +-.06 -.005 0 1 1807003620809175e-31 0 16 136 58 0
 ?138 139 117 134 0 0 1 31 137 72 0 139 134 140 0 +.06 2204364238465235e-32 0 0
 0 1 1 0 0 .005 16 139 54 0 ?141 125 136 137 0 0 1 30 140 71 0 125 137 25 0 +-.0
6 .005 0 -1 -1807003620809175e-31 0 16 125 50 0 ?142 121 139 140 0 0 1 30 25 95
 0 10 140 143 0 +-.06 .005 -.003 0 0 1 30 143 96 0 24 25 20 0 +.06 .005 -.003 0
 0 1 16 24 80 0 ?51 10 144 143 0 0 1 30 20 97 0 144 143 7 0 +.06 -.005 -.003 0 0
 1 16 144 81 0 ?54 24 19 20 0 0 1 17 54 0 145 146 127 52 63 144 0 147 +16 19 82
 0 ?56 144 131 7 0 0 1 17 56 0 148 149 123 55 65 19 0 146 +15 148 89 0 149 16 0
 17 149 0 148 42 56 46 135 117 0 142 -17 123 0 148 56 42 48 150 121 0 0 +17 65 0
 145 127 146 48 56 19 0 151 -17 146 0 145 65 54 55 138 136 0 135 -15 145 87 0 14
6 152 0 17 138 0 153 141 135 52 146 136 0 0 +17 135 0 153 138 142 55 149 117 0 0
 +15 153 49 0 135 154 0 17 142 0 153 135 141 46 155 125 0 0 +17 141 0 153 142 13
8 49 147 139 0 155 +17 155 0 156 60 23 49 142 125 0 0 -15 156 83 0 155 157 0 17
 60 0 156 133 155 43 51 24 0 130 -17 23 0 156 155 133 46 42 10 0 149 +17 133 0 1
56 23 60 35 158 131 0 0 +17 42 0 148 123 149 35 23 10 0 150 -17 150 0 97 158 151
 35 123 121 0 133 -15 97 4 0 150 96 0 17 158 0 97 159 150 43 133 131 0 0 -17 151
 0 97 150 159 48 127 124 0 123 -17 159 0 97 151 158 61 130 128 0 127 -17 127 0 1
45 54 65 61 151 124 0 0 +17 130 0 160 51 63 43 159 128 0 158 +15 160 85 0 147 16
1 0 17 51 0 160 147 130 49 60 24 0 141 +17 63 0 160 130 147 61 54 144 0 159 -17
 147 0 160 63 51 52 141 139 0 138 -14 255 161 86 162 ?152 157 160 5 163 +0 0 152
 157 22 81 1 162 461 164 161 165 0 0 166 167 14 152 88 166 ?96 161 145 5 18 +0 0
 96 161 22 14 157 84 168 ?161 16 156 5 169 +0 0 161 16 22 51 163 92 0 161 169 18
 0 +.06 2204364238465235e-32 -.003 0 0 1 .005 1 0 0 13 22 34 0 0 0 0 0 0 9 16 14
 16 90 170 ?157 0 148 5 6 +0 0 157 0 22 81 1 170 464 164 16 171 0 168 172 173 80
 255 1 164 174 175 9000 1 1 1 1 1 1 1 1 0 FFFFTFTFFFFFFF1 81 1 171 423 176 16 0
 170 0 177 178 81 1 168 463 164 157 177 0 166 170 179 81 1 172 465 164 81 180 0
 170 181 182 82 255 1 173 644939931 14 81 189 172 ?183 154 36 5 184 -0 0 183 154
 22 81 1 180 429 176 81 0 172 185 186 187 81 1 181 466 164 183 186 0 172 188 189
 82 1 182 656146587 14 183 193 181 ?190 81 191 5 192 -0 0 190 81 22 81 1 186 430
 176 183 0 181 180 193 194 81 1 188 467 164 190 193 0 181 195 196 82 1 189 65575
3371 14 190 197 188 ?93 183 28 5 197 -0 0 93 183 22 81 1 193 431 176 190 0 188 1
86 198 199 81 1 195 468 164 93 198 0 188 200 201 82 1 196 655884443 14 93 201 19
5 ?202 190 85 5 203 -0 0 202 190 22 81 1 198 432 176 93 0 195 193 204 205 81 1 2
00 469 164 96 206 0 195 207 208 82 1 201 656015515 14 96 1 200 ?154 152 209 5 21
0 -0 0 154 152 22 81 1 206 427 176 96 0 200 211 185 212 81 1 207 470 164 154 185
 0 200 213 214 82 1 208 637993117 14 154 48 207 ?81 96 215 5 216 +0 0 81 96 22 8
1 1 185 428 176 154 0 207 206 180 217 81 1 213 471 164 202 204 0 207 218 219 82
 1 214 643629213 14 202 335 213 ?220 93 221 5 222 -0 0 220 93 22 81 1 204 433 17
6 202 0 213 198 223 224 81 1 218 472 164 220 223 0 213 0 225 82 1 219 701300893
 14 220 387 218 ?0 202 226 5 227 -0 0 0 202 22 81 1 223 434 176 220 0 218 204 0
 228 82 1 225 684589213 80 1 176 0 229 8001 0 0 0 0 3 5 0 0 0 FFFFTFTFFFFFFF2 83
 255 3 228 .792156862745098 .819607843137255 .933333333333333 79 255 15 229 SDL/
TYSA_COLOUR15 226 390 0 230 220 231 51 227 396 0 220 0 222 0 +-.06 0 0 0 0 1 .00
15 1 0 0 51 222 344 0 202 227 192 0 +.06 2204364238465235e-32 0 0 0 1 .0015 1 0
 0 50 255 192 216 0 183 222 197 0 +-.0375 .0015 -.003 -1850371707708595e-31 1 0
 -1 -1850371707708595e-31 0 51 197 215 0 190 192 203 0 +.0375 1377727649040772e-
32 -.003 0 0 1 .0015 1 0 0 50 203 214 0 93 197 184 0 +-.0375 -.0015 -.003 185037
1707708595e-31 -1 0 1 1850371707708595e-31 0 51 184 213 0 81 203 210 0 +-.0375 0
 -.003 0 0 1 .0015 1 0 0 50 210 3 0 96 184 216 0 +-.06 0 -.003 0 0 1 1 0 0 50 21
6 70 0 154 210 169 0 +-.06 0 0 0 0 1 1 0 0 50 169 91 0 157 216 163 0 +-.06 .005
 -.003 -1807003620809175e-31 1 0 -1 -1807003620809175e-31 0 17 230 0 226 230 230
 0 232 233 0 0 -15 231 391 0 234 220 0 17 234 0 231 234 234 0 235 236 0 0 +17 23
5 0 215 235 235 0 234 236 0 0 -16 236 372 0 ?234 233 0 237 0 0 1 16 233 373 0 ?2
32 238 236 239 0 0 1 31 237 399 0 236 0 239 0 +-.06 0 -1224646799147352e-34 0 0
 1 1 0 0 .0015 31 239 397 0 233 237 106 0 +-.06 0 -.003 0 0 1 1 0 0 .0015 31 106
 347 0 238 239 104 0 +.06 2204364238465235e-32 -1224646799147352e-34 0 0 1 1 0 0
 .0015 16 238 320 0 ?240 105 233 106 0 0 1 17 240 0 241 240 240 0 242 238 0 0 +1
6 105 321 0 ?243 40 238 104 0 0 1 17 243 0 244 243 243 0 245 105 0 0 +15 244 299
 0 243 96 94 17 245 0 221 245 245 0 243 105 0 0 -15 221 338 0 245 202 241 15 241
 339 0 240 202 0 17 242 0 246 242 242 0 240 238 0 0 -15 246 312 0 242 154 247 15
 247 128 0 39 154 153 17 39 0 247 248 87 66 34 40 0 0 -17 248 0 247 249 39 69 10
1 99 0 0 -17 87 0 247 39 249 27 86 111 0 0 -17 249 0 247 87 248 72 113 102 0 0 -
17 86 0 85 33 41 72 87 111 0 249 +17 113 0 28 30 29 69 249 102 0 248 +15 28 200
 0 113 190 0 17 30 0 28 26 113 76 71 118 0 98 -17 29 0 28 113 26 72 33 88 0 86 +
17 71 0 191 101 98 69 30 118 0 113 +17 98 0 191 71 75 76 84 89 0 31 -15 191 196
 0 101 183 0 17 75 0 191 98 101 57 38 115 0 78 -17 31 0 94 84 91 76 26 32 0 0 +1
7 101 0 191 75 71 66 248 99 0 39 +17 38 0 36 34 78 66 75 115 0 101 +17 232 0 209
 232 232 0 230 233 0 0 +15 209 350 0 232 96 244 15 215 363 0 235 154 246 83 3 22
4 .792156862745098 .819607843137255 .933333333333333 83 3 217 .792156862745098 .
819607843137255 .933333333333333 81 1 211 426 176 152 0 166 165 206 250 83 3 212
 .792156862745098 .819607843137255 .933333333333333 81 1 166 462 164 152 211 0 1
62 168 251 81 1 165 425 176 161 0 162 177 211 252 83 3 250 .792156862745098 .819
607843137255 .933333333333333 81 1 177 424 176 157 0 168 171 165 253 83 3 252 .7
92156862745098 .819607843137255 .933333333333333 83 3 253 .792156862745098 .8196
07843137255 .933333333333333 82 1 251 644808859 83 3 205 .792156862745098 .81960
7843137255 .933333333333333 83 3 199 .792156862745098 .819607843137255 .93333333
3333333 83 3 194 .792156862745098 .819607843137255 .933333333333333 83 3 187 .79
2156862745098 .819607843137255 .933333333333333 82 1 179 644546715 83 3 178 .792
156862745098 .819607843137255 .933333333333333 79 14 175 SWEntUnchanged50 18 93
 0 152 163 6 0 +-.06 -.005 -.003 1807003620809175e-31 -1 0 1 1807003620809175e-3
1 0 82 1 167 644677787 19 17 100 0 1 0 9 5 S0 74 4 CI16 index_map_offset0 0 1 dC
CZ20 15 8 0 0 254 255 218 256 257 13 223 2 0 0 0 0 0 0 0 0 0 0 0 0 81 2 254 111
 258 1 0 255 0 0 0 259 81 2 255 266 260 1 254 256 0 0 0 261 81 1 256 407 262 1 2
55 257 0 0 263 81 2 257 408 264 1 256 13 0 0 0 0 81 2 13 422 265 1 257 2 0 0 0 2
66 80 2 265 267 268 9000 0 0 0 0 3 5 0 0 0 FFTFFFFFFFFFFF9 1 82 1 266 1 79 24 26
8 BODY_IN_LIGHTWEIGHT_PERM80 2 264 269 270 9000 0 0 0 0 3 5 0 0 0 FFTFFFFFFFFFFF
9 1 79 16 270 BODY_RECIPE_200180 1 262 271 272 9000 1 1 1 1 1 1 1 1 0 FFTFFFFFFF
FFFF1 82 1 263 140805 79 10 272 BODY_MATCH80 2 260 273 274 9000 0 0 0 0 3 5 0 0
 0 FFTFFFFFFFFFFF9 1 82 1 261 55 79 30 274 LAST_BODY_MODIFYING_FEATURE_ID80 2 25
8 275 276 9000 0 0 0 0 3 5 0 0 0 FFTFFFFFFFFFFF9 1 82 1 259 136 79 19 276 ENT_TI
ME_STAMP_200180 2 12 277 278 9000 0 0 0 0 3 5 0 0 0 FFTFFFFFFFFFFF9 1 82 1 14 10
2 79 12 278 ATOM_ID_20011 0 
